<svg width="77" height="16" viewBox="0 0 77 16" fill="none" xmlns="http://www.w3.org/2000/svg">
<rect width="76.6413" height="15.4485" rx="7.72425" fill="#FFF2F9" fill-opacity="0.8"/>
<path d="M14.806 10L12.97 5.8H13.816L15.454 9.598H14.968L16.624 5.8H17.404L15.574 10H14.806ZM17.8472 10V5.8H18.6272V10H17.8472ZM20.4832 7.546H22.5712V8.188H20.4832V7.546ZM20.5432 9.346H22.9132V10H19.7632V5.8H22.8292V6.454H20.5432V9.346ZM24.7142 10L23.3222 5.8H24.1322L25.3742 9.598H24.9722L26.2622 5.8H26.9822L28.2362 9.598H27.8462L29.1182 5.8H29.8622L28.4702 10H27.6422L26.4962 6.574H26.7122L25.5482 10H24.7142ZM32.2437 10V5.8H33.9717C34.3437 5.8 34.6617 5.86 34.9257 5.98C35.1937 6.1 35.3997 6.272 35.5437 6.496C35.6877 6.72 35.7597 6.986 35.7597 7.294C35.7597 7.602 35.6877 7.868 35.5437 8.092C35.3997 8.316 35.1937 8.488 34.9257 8.608C34.6617 8.728 34.3437 8.788 33.9717 8.788H32.6757L33.0237 8.422V10H32.2437ZM33.0237 8.506L32.6757 8.128H33.9357C34.2797 8.128 34.5377 8.056 34.7097 7.912C34.8857 7.764 34.9737 7.558 34.9737 7.294C34.9737 7.026 34.8857 6.82 34.7097 6.676C34.5377 6.532 34.2797 6.46 33.9357 6.46H32.6757L33.0237 6.076V8.506ZM36.5386 10V5.8H38.2666C38.6386 5.8 38.9566 5.86 39.2206 5.98C39.4886 6.1 39.6946 6.272 39.8386 6.496C39.9826 6.72 40.0546 6.986 40.0546 7.294C40.0546 7.602 39.9826 7.868 39.8386 8.092C39.6946 8.312 39.4886 8.482 39.2206 8.602C38.9566 8.718 38.6386 8.776 38.2666 8.776H36.9706L37.3186 8.422V10H36.5386ZM39.2866 10L38.2246 8.476H39.0586L40.1266 10H39.2866ZM37.3186 8.506L36.9706 8.134H38.2306C38.5746 8.134 38.8326 8.06 39.0046 7.912C39.1806 7.764 39.2686 7.558 39.2686 7.294C39.2686 7.026 39.1806 6.82 39.0046 6.676C38.8326 6.532 38.5746 6.46 38.2306 6.46H36.9706L37.3186 6.076V8.506ZM42.8953 10.06C42.5673 10.06 42.2653 10.006 41.9893 9.898C41.7133 9.79 41.4733 9.64 41.2693 9.448C41.0653 9.252 40.9073 9.024 40.7953 8.764C40.6833 8.5 40.6273 8.212 40.6273 7.9C40.6273 7.588 40.6833 7.302 40.7953 7.042C40.9073 6.778 41.0653 6.55 41.2693 6.358C41.4733 6.162 41.7133 6.01 41.9893 5.902C42.2653 5.794 42.5653 5.74 42.8893 5.74C43.2173 5.74 43.5173 5.794 43.7893 5.902C44.0653 6.01 44.3053 6.162 44.5093 6.358C44.7133 6.55 44.8713 6.778 44.9833 7.042C45.0953 7.302 45.1513 7.588 45.1513 7.9C45.1513 8.212 45.0953 8.5 44.9833 8.764C44.8713 9.028 44.7133 9.256 44.5093 9.448C44.3053 9.64 44.0653 9.79 43.7893 9.898C43.5173 10.006 43.2193 10.06 42.8953 10.06ZM42.8893 9.376C43.1013 9.376 43.2973 9.34 43.4773 9.268C43.6573 9.196 43.8133 9.094 43.9453 8.962C44.0773 8.826 44.1793 8.67 44.2513 8.494C44.3273 8.314 44.3653 8.116 44.3653 7.9C44.3653 7.684 44.3273 7.488 44.2513 7.312C44.1793 7.132 44.0773 6.976 43.9453 6.844C43.8133 6.708 43.6573 6.604 43.4773 6.532C43.2973 6.46 43.1013 6.424 42.8893 6.424C42.6773 6.424 42.4813 6.46 42.3013 6.532C42.1253 6.604 41.9693 6.708 41.8333 6.844C41.7013 6.976 41.5973 7.132 41.5213 7.312C41.4493 7.488 41.4133 7.684 41.4133 7.9C41.4133 8.112 41.4493 8.308 41.5213 8.488C41.5973 8.668 41.7013 8.826 41.8333 8.962C41.9653 9.094 42.1213 9.196 42.3013 9.268C42.4813 9.34 42.6773 9.376 42.8893 9.376ZM45.9781 10V5.8H47.8141C48.2701 5.8 48.6701 5.888 49.0141 6.064C49.3581 6.24 49.6261 6.484 49.8181 6.796C50.0101 7.108 50.1061 7.476 50.1061 7.9C50.1061 8.32 50.0101 8.688 49.8181 9.004C49.6261 9.316 49.3581 9.56 49.0141 9.736C48.6701 9.912 48.2701 10 47.8141 10H45.9781ZM46.7581 9.34H47.7781C48.0941 9.34 48.3661 9.28 48.5941 9.16C48.8261 9.04 49.0041 8.872 49.1281 8.656C49.2561 8.44 49.3201 8.188 49.3201 7.9C49.3201 7.608 49.2561 7.356 49.1281 7.144C49.0041 6.928 48.8261 6.76 48.5941 6.64C48.3661 6.52 48.0941 6.46 47.7781 6.46H46.7581V9.34ZM52.7411 10.06C52.1651 10.06 51.7131 9.898 51.3851 9.574C51.0611 9.25 50.8991 8.782 50.8991 8.17V5.8H51.6791V8.14C51.6791 8.572 51.7711 8.886 51.9551 9.082C52.1431 9.278 52.4071 9.376 52.7471 9.376C53.0871 9.376 53.3491 9.278 53.5331 9.082C53.7171 8.886 53.8091 8.572 53.8091 8.14V5.8H54.5771V8.17C54.5771 8.782 54.4131 9.25 54.0851 9.574C53.7611 9.898 53.3131 10.06 52.7411 10.06ZM57.6135 10.06C57.2935 10.06 56.9955 10.008 56.7195 9.904C56.4475 9.796 56.2095 9.646 56.0055 9.454C55.8055 9.258 55.6495 9.028 55.5375 8.764C55.4255 8.5 55.3695 8.212 55.3695 7.9C55.3695 7.588 55.4255 7.3 55.5375 7.036C55.6495 6.772 55.8075 6.544 56.0115 6.352C56.2155 6.156 56.4535 6.006 56.7255 5.902C56.9975 5.794 57.2955 5.74 57.6195 5.74C57.9635 5.74 58.2775 5.8 58.5615 5.92C58.8455 6.036 59.0855 6.21 59.2815 6.442L58.7775 6.916C58.6255 6.752 58.4555 6.63 58.2675 6.55C58.0795 6.466 57.8755 6.424 57.6555 6.424C57.4355 6.424 57.2335 6.46 57.0495 6.532C56.8695 6.604 56.7115 6.706 56.5755 6.838C56.4435 6.97 56.3395 7.126 56.2635 7.306C56.1915 7.486 56.1555 7.684 56.1555 7.9C56.1555 8.116 56.1915 8.314 56.2635 8.494C56.3395 8.674 56.4435 8.83 56.5755 8.962C56.7115 9.094 56.8695 9.196 57.0495 9.268C57.2335 9.34 57.4355 9.376 57.6555 9.376C57.8755 9.376 58.0795 9.336 58.2675 9.256C58.4555 9.172 58.6255 9.046 58.7775 8.878L59.2815 9.358C59.0855 9.586 58.8455 9.76 58.5615 9.88C58.2775 10 57.9615 10.06 57.6135 10.06ZM60.834 10V6.46H59.442V5.8H63.006V6.46H61.614V10H60.834Z" fill="#E997AB"/>
</svg>
