<svg width="28" height="18" viewBox="0 0 28 18" fill="none" xmlns="http://www.w3.org/2000/svg">
<path d="M25.4925 0H2.5075C2.41175 0 2.31584 0 2.22026 0.000509607C2.13957 0.00118908 2.05905 0.00203843 1.97836 0.00424673C1.8026 0.00900306 1.62532 0.0195349 1.45176 0.0507908C1.2777 0.0807369 1.10905 0.136557 0.951372 0.216413C0.634388 0.378312 0.376739 0.637037 0.215513 0.955343C0.135847 1.11374 0.080253 1.28322 0.0505797 1.45816C0.0191154 1.63261 0.00879647 1.81046 0.00405991 1.98679C0.00199825 2.06774 0.000757661 2.14872 0.000338326 2.2297C0 2.32551 0 2.42165 0 2.51797V15.482C0 15.5783 0 15.6743 0.000338326 15.7706C0.000845814 15.8515 0.00186079 15.9325 0.00405991 16.0136C0.00879647 16.1895 0.0192846 16.3676 0.0505797 16.5418C0.0801921 16.7168 0.13573 16.8863 0.215344 17.0447C0.295389 17.2029 0.399872 17.3473 0.524912 17.4727C0.649738 17.5983 0.793625 17.7033 0.951203 17.7836C1.1114 17.8656 1.27549 17.9178 1.45192 17.9496C1.62532 17.9806 1.8026 17.9912 1.97836 17.9959C2.05905 17.9978 2.13957 17.9988 2.22026 17.9993C2.31584 18 2.41175 18 2.5075 18H25.4925C25.5881 18 25.684 18 25.7796 17.9993C25.8601 17.999 25.9406 17.9978 26.0216 17.9959C26.1971 17.9912 26.3743 17.9806 26.5482 17.9496C26.7223 17.9196 26.891 17.8636 27.0486 17.7836C27.3655 17.6215 27.623 17.3628 27.7845 17.0447C27.8662 16.8838 27.918 16.719 27.9492 16.5418C27.9807 16.3676 27.9909 16.1895 27.9956 16.0136C27.9978 15.9325 27.999 15.8515 27.9993 15.7706C28 15.6743 28 15.5783 28 15.482V2.51814C28 2.42182 28 2.32568 27.9993 2.22953C27.999 2.14861 27.9978 2.06769 27.9956 1.98679C27.9909 1.81046 27.9807 1.63261 27.9492 1.45816C27.9198 1.28319 27.8642 1.11369 27.7845 0.955343C27.6232 0.637092 27.3656 0.378388 27.0486 0.216413C26.8909 0.136639 26.7223 0.0808777 26.5482 0.0509607C26.3743 0.0195349 26.1971 0.00917293 26.0216 0.00441659C25.941 0.00235902 25.8603 0.00111325 25.7796 0.000679476C25.684 0 25.5881 0 25.4925 0Z" fill="black"/>
<path d="M25.1473 1L25.4217 1.00049C25.4959 1.00097 25.5702 1.00178 25.6448 1.00372C25.775 1.00728 25.9269 1.01424 26.0687 1.03931C26.1917 1.06115 26.2951 1.09432 26.3942 1.14414C26.5925 1.24357 26.7537 1.4026 26.8543 1.59825C26.9045 1.69532 26.938 1.79659 26.9601 1.91906C26.9854 2.05722 26.9925 2.20751 26.9959 2.33645C26.998 2.40925 26.999 2.48205 26.9992 2.55647C27 2.64658 27 2.73652 27 2.8268V15.1734C27 15.2636 27 15.3536 26.9993 15.4455C26.999 15.5183 26.998 15.5911 26.9961 15.6639C26.9925 15.7927 26.9854 15.9429 26.9598 16.0827C26.9412 16.1939 26.9055 16.3016 26.854 16.4022C26.7531 16.598 26.5918 16.757 26.3932 16.8563C26.2948 16.9058 26.1917 16.939 26.0698 16.9607C25.9253 16.9861 25.7668 16.993 25.6475 16.9963C25.5725 16.9979 25.4978 16.999 25.4212 16.9994C25.3301 17 25.2386 17 25.1473 17H2.84904C2.7588 17 2.66855 17 2.57667 16.9994C2.50282 16.999 2.42898 16.9981 2.35516 16.9964C2.23308 16.9932 2.07458 16.9861 1.93117 16.9609C1.81778 16.9422 1.70791 16.9068 1.6053 16.8557C1.50687 16.8064 1.41703 16.742 1.33916 16.6648C1.26104 16.5879 1.1958 16.4993 1.14587 16.4022C1.09431 16.3011 1.05857 16.1928 1.03987 16.0811C1.01428 15.9415 1.00706 15.7918 1.00377 15.664C1.00192 15.591 1.00083 15.5179 1.00049 15.4448L1 15.2301V2.77017L1.00033 2.55582C1.00067 2.48263 1.00176 2.40945 1.00361 2.33629C1.00722 2.20816 1.01428 2.05851 1.04004 1.91777C1.05877 1.80628 1.09451 1.69823 1.14603 1.59728C1.19591 1.50054 1.26089 1.41221 1.33965 1.33472C1.41771 1.25763 1.50765 1.1932 1.60612 1.14382C1.70849 1.09312 1.81801 1.05789 1.931 1.03931C2.07293 1.01424 2.22504 1.00728 2.35532 1.00372C2.42949 1.00178 2.50381 1.00097 2.57749 1.00049L2.85265 1H25.1473Z" fill="white"/>
<path d="M7.24635 5.95754C7.4802 5.66523 7.63876 5.27265 7.59695 4.87158C7.25484 4.88857 6.83745 5.09727 6.59561 5.38991C6.37858 5.64041 6.18654 6.04931 6.23651 6.43356C6.62059 6.46687 7.00434 6.24169 7.24635 5.95754Z" fill="black"/>
<path d="M7.5931 6.50858C7.03513 6.47527 6.5611 6.82504 6.29478 6.82504C6.02829 6.82504 5.62039 6.52524 5.17918 6.5334C4.60505 6.54173 4.0724 6.86652 3.78092 7.38285C3.18165 8.4155 3.62269 9.94783 4.20565 10.7889C4.48863 11.2053 4.82974 11.6634 5.27911 11.6469C5.70383 11.6302 5.87022 11.3721 6.38622 11.3721C6.90205 11.3721 7.05195 11.6469 7.50149 11.6386C7.96752 11.6302 8.25899 11.2222 8.54197 10.8058C8.86676 10.3311 8.99951 9.87305 9.00784 9.84807C8.99951 9.83974 8.10909 9.49813 8.10076 8.4738C8.09244 7.61603 8.79997 7.20796 8.83328 7.18281C8.43371 6.59186 7.80945 6.52524 7.59293 6.50858" fill="black"/>
<path d="M13.1537 5.34766C14.3659 5.34766 15.2101 6.18328 15.2101 7.39981C15.2101 8.62068 14.3485 9.46063 13.1233 9.46063H11.7812V11.5952H10.8115V5.34766H13.1537ZM11.7812 8.64666H12.8938C13.7383 8.64666 14.2186 8.19213 14.2186 7.40414C14.2186 6.61633 13.7381 6.16595 12.8982 6.16595H11.7812V8.64666Z" fill="black"/>
<path d="M15.4502 10.3005C15.4502 9.49956 16.0606 9.04069 17.1862 8.97141L18.3941 8.89779V8.55135C18.3941 8.04501 18.0608 7.76786 17.4677 7.76786C16.9784 7.76786 16.6233 8.01886 16.55 8.40411H15.6752C15.7014 7.59464 16.4632 7.00586 17.4937 7.00586C18.602 7.00586 19.325 7.58598 19.325 8.48656V11.595H18.4289V10.846H18.4073C18.1518 11.3352 17.5888 11.6425 16.9784 11.6425C16.078 11.6425 15.4502 11.1058 15.4502 10.3005ZM18.3941 9.89797V9.5472L17.3161 9.61648C16.7099 9.65546 16.3941 9.88048 16.3941 10.2744C16.3941 10.6555 16.723 10.9023 17.2382 10.9023C17.8961 10.9023 18.3941 10.4823 18.3941 9.89797Z" fill="black"/>
<path d="M20.1496 13.266V12.5171C20.2102 12.5256 20.3573 12.5343 20.4352 12.5343C20.8638 12.5343 21.1063 12.3527 21.2535 11.8849L21.3401 11.6079L19.6992 7.06201H20.7122L21.8553 10.7506H21.877L23.0199 7.06201H24.0071L22.3055 11.8372C21.9158 12.9327 21.4699 13.2921 20.5262 13.2921C20.4526 13.2921 20.2144 13.2834 20.1496 13.266Z" fill="black"/>
</svg>
