<svg width="57" height="12" viewBox="0 0 57 12" fill="none" xmlns="http://www.w3.org/2000/svg">
<rect width="56.5518" height="11.6474" rx="5.82368" fill="#FFF2F9" fill-opacity="0.8"/>
<path d="M13.6898 7.88887C13.4164 7.88887 13.1548 7.85053 12.9048 7.77387C12.6548 7.69387 12.4564 7.5922 12.3098 7.46887L12.5348 6.96387C12.6748 7.07387 12.8481 7.16553 13.0548 7.23887C13.2614 7.3122 13.4731 7.34887 13.6898 7.34887C13.8731 7.34887 14.0214 7.32887 14.1348 7.28887C14.2481 7.24887 14.3314 7.19553 14.3848 7.12887C14.4381 7.05887 14.4648 6.98053 14.4648 6.89387C14.4648 6.7872 14.4264 6.7022 14.3498 6.63887C14.2731 6.5722 14.1731 6.52053 14.0498 6.48387C13.9298 6.44387 13.7948 6.4072 13.6448 6.37387C13.4981 6.34053 13.3498 6.3022 13.1998 6.25887C13.0531 6.2122 12.9181 6.15387 12.7948 6.08387C12.6748 6.01053 12.5764 5.91387 12.4998 5.79387C12.4231 5.67387 12.3848 5.52053 12.3848 5.33387C12.3848 5.14387 12.4348 4.97053 12.5348 4.81387C12.6381 4.65387 12.7931 4.5272 12.9998 4.43387C13.2098 4.3372 13.4748 4.28887 13.7948 4.28887C14.0048 4.28887 14.2131 4.31553 14.4198 4.36887C14.6264 4.4222 14.8064 4.49887 14.9598 4.59887L14.7548 5.10387C14.5981 5.01053 14.4364 4.9422 14.2698 4.89887C14.1031 4.8522 13.9431 4.82887 13.7898 4.82887C13.6098 4.82887 13.4631 4.85053 13.3498 4.89387C13.2398 4.9372 13.1581 4.99387 13.1048 5.06387C13.0548 5.13387 13.0298 5.21387 13.0298 5.30387C13.0298 5.41053 13.0664 5.4972 13.1398 5.56387C13.2164 5.6272 13.3148 5.6772 13.4348 5.71387C13.5581 5.75053 13.6948 5.7872 13.8448 5.82387C13.9948 5.8572 14.1431 5.89553 14.2898 5.93887C14.4398 5.9822 14.5748 6.03887 14.6948 6.10887C14.8181 6.17887 14.9164 6.27387 14.9898 6.39387C15.0664 6.51387 15.1048 6.66553 15.1048 6.84887C15.1048 7.03553 15.0531 7.20887 14.9498 7.36887C14.8498 7.52553 14.6948 7.6522 14.4848 7.74887C14.2748 7.8422 14.0098 7.88887 13.6898 7.88887ZM17.2543 7.88887C16.7743 7.88887 16.3976 7.75387 16.1243 7.48387C15.8543 7.21387 15.7193 6.82387 15.7193 6.31387V4.33887H16.3693V6.28887C16.3693 6.64887 16.446 6.91053 16.5993 7.07387C16.756 7.2372 16.976 7.31887 17.2593 7.31887C17.5426 7.31887 17.761 7.2372 17.9143 7.07387C18.0676 6.91053 18.1443 6.64887 18.1443 6.28887V4.33887H18.7843V6.31387C18.7843 6.82387 18.6476 7.21387 18.3743 7.48387C18.1043 7.75387 17.731 7.88887 17.2543 7.88887ZM19.6946 7.83887V4.33887H21.3346C21.7546 4.33887 22.0746 4.4222 22.2946 4.58887C22.5146 4.7522 22.6246 4.9722 22.6246 5.24887C22.6246 5.43553 22.5813 5.59553 22.4946 5.72887C22.4079 5.85887 22.2913 5.96053 22.1446 6.03387C22.0013 6.10387 21.8446 6.13887 21.6746 6.13887L21.7646 5.95887C21.9613 5.95887 22.1379 5.99553 22.2946 6.06887C22.4513 6.13887 22.5746 6.2422 22.6646 6.37887C22.7579 6.51553 22.8046 6.68553 22.8046 6.88887C22.8046 7.18887 22.6896 7.4222 22.4596 7.58887C22.2296 7.75553 21.8879 7.83887 21.4346 7.83887H19.6946ZM20.3446 7.32887H21.3946C21.6379 7.32887 21.8246 7.28887 21.9546 7.20887C22.0846 7.12887 22.1496 7.00053 22.1496 6.82387C22.1496 6.65053 22.0846 6.52387 21.9546 6.44387C21.8246 6.36053 21.6379 6.31887 21.3946 6.31887H20.2946V5.81387H21.2646C21.4913 5.81387 21.6646 5.77387 21.7846 5.69387C21.9079 5.61387 21.9696 5.49387 21.9696 5.33387C21.9696 5.17053 21.9079 5.04887 21.7846 4.96887C21.6646 4.88887 21.4913 4.84887 21.2646 4.84887H20.3446V7.32887ZM24.5833 7.88887C24.31 7.88887 24.0483 7.85053 23.7983 7.77387C23.5483 7.69387 23.35 7.5922 23.2033 7.46887L23.4283 6.96387C23.5683 7.07387 23.7417 7.16553 23.9483 7.23887C24.155 7.3122 24.3667 7.34887 24.5833 7.34887C24.7667 7.34887 24.915 7.32887 25.0283 7.28887C25.1417 7.24887 25.225 7.19553 25.2783 7.12887C25.3317 7.05887 25.3583 6.98053 25.3583 6.89387C25.3583 6.7872 25.32 6.7022 25.2433 6.63887C25.1667 6.5722 25.0667 6.52053 24.9433 6.48387C24.8233 6.44387 24.6883 6.4072 24.5383 6.37387C24.3917 6.34053 24.2433 6.3022 24.0933 6.25887C23.9467 6.2122 23.8117 6.15387 23.6883 6.08387C23.5683 6.01053 23.47 5.91387 23.3933 5.79387C23.3167 5.67387 23.2783 5.52053 23.2783 5.33387C23.2783 5.14387 23.3283 4.97053 23.4283 4.81387C23.5317 4.65387 23.6867 4.5272 23.8933 4.43387C24.1033 4.3372 24.3683 4.28887 24.6883 4.28887C24.8983 4.28887 25.1067 4.31553 25.3133 4.36887C25.52 4.4222 25.7 4.49887 25.8533 4.59887L25.6483 5.10387C25.4917 5.01053 25.33 4.9422 25.1633 4.89887C24.9967 4.8522 24.8367 4.82887 24.6833 4.82887C24.5033 4.82887 24.3567 4.85053 24.2433 4.89387C24.1333 4.9372 24.0517 4.99387 23.9983 5.06387C23.9483 5.13387 23.9233 5.21387 23.9233 5.30387C23.9233 5.41053 23.96 5.4972 24.0333 5.56387C24.11 5.6272 24.2083 5.6772 24.3283 5.71387C24.4517 5.75053 24.5883 5.7872 24.7383 5.82387C24.8883 5.8572 25.0367 5.89553 25.1833 5.93887C25.3333 5.9822 25.4683 6.03887 25.5883 6.10887C25.7117 6.17887 25.81 6.27387 25.8833 6.39387C25.96 6.51387 25.9983 6.66553 25.9983 6.84887C25.9983 7.03553 25.9467 7.20887 25.8433 7.36887C25.7433 7.52553 25.5883 7.6522 25.3783 7.74887C25.1683 7.8422 24.9033 7.88887 24.5833 7.88887ZM28.2629 7.88887C27.9962 7.88887 27.7479 7.84553 27.5179 7.75887C27.2912 7.66887 27.0929 7.54387 26.9229 7.38387C26.7562 7.22053 26.6262 7.02887 26.5329 6.80887C26.4395 6.58887 26.3929 6.34887 26.3929 6.08887C26.3929 5.82887 26.4395 5.58887 26.5329 5.36887C26.6262 5.14887 26.7579 4.95887 26.9279 4.79887C27.0979 4.63553 27.2962 4.51053 27.5229 4.42387C27.7495 4.33387 27.9979 4.28887 28.2679 4.28887C28.5545 4.28887 28.8162 4.33887 29.0529 4.43887C29.2895 4.53553 29.4895 4.68053 29.6529 4.87387L29.2329 5.26887C29.1062 5.1322 28.9645 5.03053 28.8079 4.96387C28.6512 4.89387 28.4812 4.85887 28.2979 4.85887C28.1145 4.85887 27.9462 4.88887 27.7929 4.94887C27.6429 5.00887 27.5112 5.09387 27.3979 5.20387C27.2879 5.31387 27.2012 5.44387 27.1379 5.59387C27.0779 5.74387 27.0479 5.90887 27.0479 6.08887C27.0479 6.26887 27.0779 6.43387 27.1379 6.58387C27.2012 6.73387 27.2879 6.86387 27.3979 6.97387C27.5112 7.08387 27.6429 7.16887 27.7929 7.22887C27.9462 7.28887 28.1145 7.31887 28.2979 7.31887C28.4812 7.31887 28.6512 7.28553 28.8079 7.21887C28.9645 7.14887 29.1062 7.04387 29.2329 6.90387L29.6529 7.30387C29.4895 7.49387 29.2895 7.63887 29.0529 7.73887C28.8162 7.83887 28.5529 7.88887 28.2629 7.88887ZM30.2757 7.83887V4.33887H31.7157C32.0257 4.33887 32.2907 4.38887 32.5107 4.48887C32.734 4.58887 32.9057 4.7322 33.0257 4.91887C33.1457 5.10553 33.2057 5.3272 33.2057 5.58387C33.2057 5.84053 33.1457 6.0622 33.0257 6.24887C32.9057 6.4322 32.734 6.57387 32.5107 6.67387C32.2907 6.77053 32.0257 6.81887 31.7157 6.81887H30.6357L30.9257 6.52387V7.83887H30.2757ZM32.5657 7.83887L31.6807 6.56887H32.3757L33.2657 7.83887H32.5657ZM30.9257 6.59387L30.6357 6.28387H31.6857C31.9723 6.28387 32.1873 6.2222 32.3307 6.09887C32.4773 5.97553 32.5507 5.80387 32.5507 5.58387C32.5507 5.36053 32.4773 5.18887 32.3307 5.06887C32.1873 4.94887 31.9723 4.88887 31.6857 4.88887H30.6357L30.9257 4.56887V6.59387ZM33.9329 7.83887V4.33887H34.5829V7.83887H33.9329ZM35.5296 7.83887V4.33887H37.1696C37.5896 4.33887 37.9096 4.4222 38.1296 4.58887C38.3496 4.7522 38.4596 4.9722 38.4596 5.24887C38.4596 5.43553 38.4162 5.59553 38.3296 5.72887C38.2429 5.85887 38.1262 5.96053 37.9796 6.03387C37.8362 6.10387 37.6796 6.13887 37.5096 6.13887L37.5996 5.95887C37.7962 5.95887 37.9729 5.99553 38.1296 6.06887C38.2862 6.13887 38.4096 6.2422 38.4996 6.37887C38.5929 6.51553 38.6396 6.68553 38.6396 6.88887C38.6396 7.18887 38.5246 7.4222 38.2946 7.58887C38.0646 7.75553 37.7229 7.83887 37.2696 7.83887H35.5296ZM36.1796 7.32887H37.2296C37.4729 7.32887 37.6596 7.28887 37.7896 7.20887C37.9196 7.12887 37.9846 7.00053 37.9846 6.82387C37.9846 6.65053 37.9196 6.52387 37.7896 6.44387C37.6596 6.36053 37.4729 6.31887 37.2296 6.31887H36.1296V5.81387H37.0996C37.3262 5.81387 37.4996 5.77387 37.6196 5.69387C37.7429 5.61387 37.8046 5.49387 37.8046 5.33387C37.8046 5.17053 37.7429 5.04887 37.6196 4.96887C37.4996 4.88887 37.3262 4.84887 37.0996 4.84887H36.1796V7.32887ZM39.9333 5.79387H41.6733V6.32887H39.9333V5.79387ZM39.9833 7.29387H41.9583V7.83887H39.3333V4.33887H41.8883V4.88387H39.9833V7.29387Z" fill="#BE9DAF"/>
</svg>
