<svg width="5" height="5" viewBox="0 0 5 5" fill="none" xmlns="http://www.w3.org/2000/svg">
<g clip-path="url(#clip0_106_455)">
<path d="M4.6375 4.5001L3.4125 3.2751C3.925 2.6001 3.8625 1.6251 3.25 1.0126C2.575 0.337598 1.475 0.337598 0.7875 1.0126C0.1125 1.6876 0.1125 2.7876 0.7875 3.4751C1.1125 3.8001 1.55 3.9876 2.0125 3.9876C2.3875 3.9876 2.75 3.8626 3.05 3.6376L4.275 4.8626C4.325 4.9126 4.3875 4.9376 4.45 4.9376C4.5125 4.9376 4.575 4.9126 4.625 4.8626C4.7375 4.7501 4.7375 4.6001 4.6375 4.5001ZM2.025 3.4751C1.7 3.4751 1.3875 3.3501 1.15 3.1126C0.6625 2.6251 0.6625 1.8501 1.15 1.3626C1.3875 1.1251 1.7125 1.0001 2.025 1.0001C2.3375 1.0001 2.6625 1.1251 2.9 1.3626C3.3875 1.8501 3.3875 2.6251 2.9 3.1126C2.6625 3.3501 2.35 3.4751 2.025 3.4751Z" fill="#63C6E4"/>
</g>
<defs>
<clipPath id="clip0_106_455">
<rect width="5" height="5" fill="white"/>
</clipPath>
</defs>
</svg>
