<svg width="49" height="8" viewBox="0 0 49 8" fill="none" xmlns="http://www.w3.org/2000/svg">
<g clip-path="url(#clip0_144_143)">
<path d="M4.20242 1.32415C4.29667 1.13937 4.34382 1.04699 4.40944 1.01854C4.46644 0.993821 4.53337 0.993821 4.59037 1.01854C4.656 1.04699 4.70314 1.13937 4.79739 1.32415L5.54812 2.79589C5.57601 2.85051 5.58993 2.87782 5.61151 2.89874C5.63056 2.91725 5.65389 2.93205 5.67991 2.94218C5.70934 2.95364 5.74338 2.95677 5.81145 2.96305L7.64525 3.13218C7.87547 3.15341 7.99057 3.16403 8.04182 3.20977C8.08632 3.24951 8.107 3.30515 8.09772 3.36016C8.08705 3.42349 8.00107 3.49119 7.8291 3.62663L6.45926 4.70535C6.40845 4.74537 6.38301 4.7654 6.36693 4.78977C6.35268 4.81137 6.34376 4.83531 6.34079 4.86007C6.33741 4.88807 6.34449 4.91731 6.3587 4.97583L6.74131 6.55209C6.78936 6.74999 6.81337 6.84893 6.77942 6.90564C6.7499 6.95495 6.69576 6.98931 6.63302 6.9986C6.5608 7.00927 6.46052 6.95875 6.25997 6.85768L4.66263 6.0526C4.60336 6.02272 4.57372 6.00781 4.54221 6.00194C4.51432 5.99678 4.48549 5.99678 4.45761 6.00194C4.4261 6.00781 4.39646 6.02272 4.33718 6.0526L2.73985 6.85768C2.53931 6.95875 2.43904 7.00927 2.36681 6.9986C2.30407 6.98931 2.2499 6.95495 2.22041 6.90564C2.18646 6.84893 2.21048 6.74999 2.25851 6.55209L2.64111 4.97583C2.65531 4.91731 2.66241 4.88807 2.65904 4.86007C2.65606 4.83531 2.64715 4.81137 2.6329 4.78977C2.6168 4.7654 2.59138 4.74537 2.54054 4.70535L1.17073 3.62663C0.998761 3.49119 0.912773 3.42349 0.902082 3.36016C0.8928 3.30515 0.913486 3.24951 0.958 3.20977C1.00925 3.16403 1.12436 3.15341 1.35459 3.13218L3.18838 2.96305C3.25645 2.95677 3.29047 2.95364 3.3199 2.94218C3.34594 2.93205 3.36925 2.91725 3.38833 2.89874C3.40988 2.87782 3.42381 2.85051 3.45168 2.79589L4.20242 1.32415Z" fill="#63C6E4" stroke="#63C6E4" stroke-width="2" stroke-linecap="round" stroke-linejoin="round"/>
</g>
<g clip-path="url(#clip1_144_143)">
<path d="M14.2024 1.32415C14.2967 1.13937 14.3438 1.04699 14.4094 1.01854C14.4664 0.993821 14.5334 0.993821 14.5904 1.01854C14.656 1.04699 14.7031 1.13937 14.7974 1.32415L15.5481 2.79589C15.576 2.85051 15.5899 2.87782 15.6115 2.89874C15.6306 2.91725 15.6539 2.93205 15.6799 2.94218C15.7093 2.95364 15.7434 2.95677 15.8114 2.96305L17.6452 3.13218C17.8755 3.15341 17.9906 3.16403 18.0418 3.20977C18.0863 3.24951 18.107 3.30515 18.0977 3.36016C18.0871 3.42349 18.0011 3.49119 17.8291 3.62663L16.4593 4.70535C16.4085 4.74537 16.383 4.7654 16.3669 4.78977C16.3527 4.81137 16.3438 4.83531 16.3408 4.86007C16.3374 4.88807 16.3445 4.91731 16.3587 4.97583L16.7413 6.55209C16.7894 6.74999 16.8134 6.84893 16.7794 6.90564C16.7499 6.95495 16.6958 6.98931 16.633 6.9986C16.5608 7.00927 16.4605 6.95875 16.26 6.85768L14.6626 6.0526C14.6034 6.02272 14.5737 6.00781 14.5422 6.00194C14.5143 5.99678 14.4855 5.99678 14.4576 6.00194C14.4261 6.00781 14.3965 6.02272 14.3372 6.0526L12.7398 6.85768C12.5393 6.95875 12.439 7.00927 12.3668 6.9986C12.3041 6.98931 12.2499 6.95495 12.2204 6.90564C12.1865 6.84893 12.2105 6.74999 12.2585 6.55209L12.6411 4.97583C12.6553 4.91731 12.6624 4.88807 12.659 4.86007C12.6561 4.83531 12.6472 4.81137 12.6329 4.78977C12.6168 4.7654 12.5914 4.74537 12.5405 4.70535L11.1707 3.62663C10.9988 3.49119 10.9128 3.42349 10.9021 3.36016C10.8928 3.30515 10.9135 3.24951 10.958 3.20977C11.0092 3.16403 11.1244 3.15341 11.3546 3.13218L13.1884 2.96305C13.2564 2.95677 13.2905 2.95364 13.3199 2.94218C13.3459 2.93205 13.3692 2.91725 13.3883 2.89874C13.4099 2.87782 13.4238 2.85051 13.4517 2.79589L14.2024 1.32415Z" fill="#63C6E4" stroke="#63C6E4" stroke-width="2" stroke-linecap="round" stroke-linejoin="round"/>
</g>
<g clip-path="url(#clip2_144_143)">
<path d="M24.2024 1.32415C24.2967 1.13937 24.3438 1.04699 24.4094 1.01854C24.4664 0.993821 24.5334 0.993821 24.5904 1.01854C24.656 1.04699 24.7031 1.13937 24.7974 1.32415L25.5481 2.79589C25.576 2.85051 25.5899 2.87782 25.6115 2.89874C25.6306 2.91725 25.6539 2.93205 25.6799 2.94218C25.7093 2.95364 25.7434 2.95677 25.8114 2.96305L27.6452 3.13218C27.8755 3.15341 27.9906 3.16403 28.0418 3.20977C28.0863 3.24951 28.107 3.30515 28.0977 3.36016C28.0871 3.42349 28.0011 3.49119 27.8291 3.62663L26.4593 4.70535C26.4085 4.74537 26.383 4.7654 26.3669 4.78977C26.3527 4.81137 26.3438 4.83531 26.3408 4.86007C26.3374 4.88807 26.3445 4.91731 26.3587 4.97583L26.7413 6.55209C26.7894 6.74999 26.8134 6.84893 26.7794 6.90564C26.7499 6.95495 26.6958 6.98931 26.633 6.9986C26.5608 7.00927 26.4605 6.95875 26.26 6.85768L24.6626 6.0526C24.6034 6.02272 24.5737 6.00781 24.5422 6.00194C24.5143 5.99678 24.4855 5.99678 24.4576 6.00194C24.4261 6.00781 24.3965 6.02272 24.3372 6.0526L22.7398 6.85768C22.5393 6.95875 22.439 7.00927 22.3668 6.9986C22.3041 6.98931 22.2499 6.95495 22.2204 6.90564C22.1865 6.84893 22.2105 6.74999 22.2585 6.55209L22.6411 4.97583C22.6553 4.91731 22.6624 4.88807 22.659 4.86007C22.6561 4.83531 22.6472 4.81137 22.6329 4.78977C22.6168 4.7654 22.5914 4.74537 22.5405 4.70535L21.1707 3.62663C20.9988 3.49119 20.9128 3.42349 20.9021 3.36016C20.8928 3.30515 20.9135 3.24951 20.958 3.20977C21.0092 3.16403 21.1244 3.15341 21.3546 3.13218L23.1884 2.96305C23.2564 2.95677 23.2905 2.95364 23.3199 2.94218C23.3459 2.93205 23.3692 2.91725 23.3883 2.89874C23.4099 2.87782 23.4238 2.85051 23.4517 2.79589L24.2024 1.32415Z" fill="#63C6E4" stroke="#63C6E4" stroke-width="2" stroke-linecap="round" stroke-linejoin="round"/>
</g>
<g clip-path="url(#clip3_144_143)">
<path d="M34.2024 1.32415C34.2967 1.13937 34.3438 1.04699 34.4094 1.01854C34.4664 0.993821 34.5334 0.993821 34.5904 1.01854C34.656 1.04699 34.7031 1.13937 34.7974 1.32415L35.5481 2.79589C35.576 2.85051 35.5899 2.87782 35.6115 2.89874C35.6306 2.91725 35.6539 2.93205 35.6799 2.94218C35.7093 2.95364 35.7434 2.95677 35.8114 2.96305L37.6452 3.13218C37.8755 3.15341 37.9906 3.16403 38.0418 3.20977C38.0863 3.24951 38.107 3.30515 38.0977 3.36016C38.0871 3.42349 38.0011 3.49119 37.8291 3.62663L36.4593 4.70535C36.4085 4.74537 36.383 4.7654 36.3669 4.78977C36.3527 4.81137 36.3438 4.83531 36.3408 4.86007C36.3374 4.88807 36.3445 4.91731 36.3587 4.97583L36.7413 6.55209C36.7894 6.74999 36.8134 6.84893 36.7794 6.90564C36.7499 6.95495 36.6958 6.98931 36.633 6.9986C36.5608 7.00927 36.4605 6.95875 36.26 6.85768L34.6626 6.0526C34.6034 6.02272 34.5737 6.00781 34.5422 6.00194C34.5143 5.99678 34.4855 5.99678 34.4576 6.00194C34.4261 6.00781 34.3965 6.02272 34.3372 6.0526L32.7398 6.85768C32.5393 6.95875 32.439 7.00927 32.3668 6.9986C32.3041 6.98931 32.2499 6.95495 32.2204 6.90564C32.1865 6.84893 32.2105 6.74999 32.2585 6.55209L32.6411 4.97583C32.6553 4.91731 32.6624 4.88807 32.659 4.86007C32.6561 4.83531 32.6472 4.81137 32.6329 4.78977C32.6168 4.7654 32.5914 4.74537 32.5405 4.70535L31.1707 3.62663C30.9988 3.49119 30.9128 3.42349 30.9021 3.36016C30.8928 3.30515 30.9135 3.24951 30.958 3.20977C31.0092 3.16403 31.1244 3.15341 31.3546 3.13218L33.1884 2.96305C33.2564 2.95677 33.2905 2.95364 33.3199 2.94218C33.3459 2.93205 33.3692 2.91725 33.3883 2.89874C33.4099 2.87782 33.4238 2.85051 33.4517 2.79589L34.2024 1.32415Z" fill="#63C6E4" stroke="#63C6E4" stroke-width="2" stroke-linecap="round" stroke-linejoin="round"/>
</g>
<g clip-path="url(#clip4_144_143)">
<path d="M44.2024 1.32415C44.2967 1.13937 44.3438 1.04699 44.4094 1.01854C44.4664 0.993821 44.5334 0.993821 44.5904 1.01854C44.656 1.04699 44.7031 1.13937 44.7974 1.32415L45.5481 2.79589C45.576 2.85051 45.5899 2.87782 45.6115 2.89874C45.6306 2.91725 45.6539 2.93205 45.6799 2.94218C45.7093 2.95364 45.7434 2.95677 45.8114 2.96305L47.6452 3.13218C47.8755 3.15341 47.9906 3.16403 48.0418 3.20977C48.0863 3.24951 48.107 3.30515 48.0977 3.36016C48.0871 3.42349 48.0011 3.49119 47.8291 3.62663L46.4593 4.70535C46.4085 4.74537 46.383 4.7654 46.3669 4.78977C46.3527 4.81137 46.3438 4.83531 46.3408 4.86007C46.3374 4.88807 46.3445 4.91731 46.3587 4.97583L46.7413 6.55209C46.7894 6.74999 46.8134 6.84893 46.7794 6.90564C46.7499 6.95495 46.6958 6.98931 46.633 6.9986C46.5608 7.00927 46.4605 6.95875 46.26 6.85768L44.6626 6.0526C44.6034 6.02272 44.5737 6.00781 44.5422 6.00194C44.5143 5.99678 44.4855 5.99678 44.4576 6.00194C44.4261 6.00781 44.3965 6.02272 44.3372 6.0526L42.7398 6.85768C42.5393 6.95875 42.439 7.00927 42.3668 6.9986C42.3041 6.98931 42.2499 6.95495 42.2204 6.90564C42.1865 6.84893 42.2105 6.74999 42.2585 6.55209L42.6411 4.97583C42.6553 4.91731 42.6624 4.88807 42.659 4.86007C42.6561 4.83531 42.6472 4.81137 42.6329 4.78977C42.6168 4.7654 42.5914 4.74537 42.5405 4.70535L41.1707 3.62663C40.9988 3.49119 40.9128 3.42349 40.9021 3.36016C40.8928 3.30515 40.9135 3.24951 40.958 3.20977C41.0092 3.16403 41.1244 3.15341 41.3546 3.13218L43.1884 2.96305C43.2564 2.95677 43.2905 2.95364 43.3199 2.94218C43.3459 2.93205 43.3692 2.91725 43.3883 2.89874C43.4099 2.87782 43.4238 2.85051 43.4517 2.79589L44.2024 1.32415Z" fill="#63C6E4" stroke="#63C6E4" stroke-width="2" stroke-linecap="round" stroke-linejoin="round"/>
</g>
<defs>
<clipPath id="clip0_144_143">
<rect width="9" height="8" fill="white"/>
</clipPath>
<clipPath id="clip1_144_143">
<rect width="9" height="8" fill="white" transform="translate(10)"/>
</clipPath>
<clipPath id="clip2_144_143">
<rect width="9" height="8" fill="white" transform="translate(20)"/>
</clipPath>
<clipPath id="clip3_144_143">
<rect width="9" height="8" fill="white" transform="translate(30)"/>
</clipPath>
<clipPath id="clip4_144_143">
<rect width="9" height="8" fill="white" transform="translate(40)"/>
</clipPath>
</defs>
</svg>
