<svg width="28" height="18" viewBox="0 0 28 18" fill="none" xmlns="http://www.w3.org/2000/svg">
<path opacity="0.07" d="M25.7895 0H2.21053C0.957895 0 0 0.975 0 2.25V15.75C0 17.025 1.03158 18 2.21053 18H25.7895C27.0421 18 28 17.025 28 15.75V2.25C28 0.975 26.9684 0 25.7895 0Z" fill="black"/>
<path d="M26.5 1C27.325 1 28 1.65455 28 2.45455V15.5455C28 16.3455 27.325 17 26.5 17H2.5C1.675 17 1 16.3455 1 15.5455V2.45455C1 1.65455 1.675 1 2.5 1H26.5Z" fill="white"/>
<path d="M11.5 14C14.5376 14 17 11.7614 17 9C17 6.23858 14.5376 4 11.5 4C8.46243 4 6 6.23858 6 9C6 11.7614 8.46243 14 11.5 14Z" fill="#EB001B"/>
<path d="M17 14C19.7614 14 22 11.7614 22 9C22 6.23858 19.7614 4 17 4C14.2386 4 12 6.23858 12 9C12 11.7614 14.2386 14 17 14Z" fill="#F79E1B"/>
<path d="M17 9C17 7.31579 16 5.84211 14.5 5C13 5.91228 12 7.38596 12 9C12 10.614 13 12.1579 14.5 13C16 12.1579 17 10.6842 17 9Z" fill="#FF5F00"/>
</svg>
