<svg width="8" height="8" viewBox="0 0 8 8" fill="none" xmlns="http://www.w3.org/2000/svg">
<path d="M7.23786 1.62382C7.23786 1.40548 7.2377 1.29622 7.19521 1.21283C7.15786 1.13947 7.09841 1.07987 7.02507 1.04249C6.94168 1 6.83228 1 6.61392 1H1.62363C1.40529 1 1.29622 1 1.21283 1.04249C1.13947 1.07987 1.07987 1.13947 1.04249 1.21283C1 1.29622 1 1.40548 1 1.62382V1.91126C1 2.00662 1 2.05433 1.01077 2.0992C1.02032 2.13898 1.03611 2.17698 1.05749 2.21186C1.08159 2.25119 1.11537 2.28496 1.18275 2.35235L3.15654 4.32614C3.22396 4.39355 3.2575 4.42708 3.28161 4.46646C3.30298 4.50131 3.31899 4.53944 3.32854 4.57925C3.3392 4.62365 3.3392 4.67079 3.3392 4.76424V6.61836C3.3392 6.95256 3.3392 7.11977 3.40957 7.22039C3.47105 7.30827 3.56587 7.36691 3.67195 7.38258C3.79343 7.40051 3.94298 7.32585 4.24189 7.17642L4.55379 7.02047C4.67897 6.9579 4.74139 6.92647 4.78712 6.87977C4.82755 6.83848 4.85851 6.78893 4.87734 6.73431C4.89866 6.67251 4.89866 6.60238 4.89866 6.46242V4.76712C4.89866 4.67176 4.89866 4.62412 4.90942 4.57925C4.91897 4.53944 4.93476 4.50131 4.95617 4.46646C4.98011 4.42735 5.01356 4.3939 5.08007 4.32739L5.08143 4.32614L7.05521 2.35235C7.12262 2.28492 7.15614 2.25121 7.18028 2.21186C7.20164 2.17698 7.21767 2.13898 7.22722 2.0992C7.23786 2.05479 7.23786 2.00759 7.23786 1.91416V1.62382Z" stroke="#8AD4EB" stroke-width="0.5" stroke-linecap="round" stroke-linejoin="round"/>
</svg>
