<svg width="35" height="11" viewBox="0 0 35 11" fill="none" xmlns="http://www.w3.org/2000/svg">
<rect x="1.17798" y="0.5" width="33.322" height="9.80509" rx="4.90254" fill="#63C6E4" stroke="#63C6E4"/>
<path d="M2.98 7L4.24 4.2H4.752L6.016 7H5.472L4.388 4.476H4.596L3.516 7H2.98ZM3.56 6.352L3.7 5.944H5.212L5.352 6.352H3.56ZM6.37209 7V4.2H7.59609C7.90009 4.2 8.16676 4.25867 8.39609 4.376C8.62543 4.49333 8.80409 4.656 8.93209 4.864C9.06009 5.072 9.12409 5.31733 9.12409 5.6C9.12409 5.88 9.06009 6.12533 8.93209 6.336C8.80409 6.544 8.62543 6.70667 8.39609 6.824C8.16676 6.94133 7.90009 7 7.59609 7H6.37209ZM6.89209 6.56H7.57209C7.78276 6.56 7.96409 6.52 8.11609 6.44C8.27076 6.36 8.38943 6.248 8.47209 6.104C8.55743 5.96 8.60009 5.792 8.60009 5.6C8.60009 5.40533 8.55743 5.23733 8.47209 5.096C8.38943 4.952 8.27076 4.84 8.11609 4.76C7.96409 4.68 7.78276 4.64 7.57209 4.64H6.89209V6.56ZM9.67678 7V4.2H10.9008C11.2048 4.2 11.4714 4.25867 11.7008 4.376C11.9301 4.49333 12.1088 4.656 12.2368 4.864C12.3648 5.072 12.4288 5.31733 12.4288 5.6C12.4288 5.88 12.3648 6.12533 12.2368 6.336C12.1088 6.544 11.9301 6.70667 11.7008 6.824C11.4714 6.94133 11.2048 7 10.9008 7H9.67678ZM10.1968 6.56H10.8768C11.0874 6.56 11.2688 6.52 11.4208 6.44C11.5754 6.36 11.6941 6.248 11.7768 6.104C11.8621 5.96 11.9048 5.792 11.9048 5.6C11.9048 5.40533 11.8621 5.23733 11.7768 5.096C11.6941 4.952 11.5754 4.84 11.4208 4.76C11.2688 4.68 11.0874 4.64 10.8768 4.64H10.1968V6.56ZM14.6549 7V4.64H13.7269V4.2H16.1029V4.64H15.1749V7H14.6549ZM17.7661 7.04C17.5475 7.04 17.3461 7.004 17.1621 6.932C16.9781 6.86 16.8181 6.76 16.6821 6.632C16.5461 6.50133 16.4408 6.34933 16.3661 6.176C16.2915 6 16.2541 5.808 16.2541 5.6C16.2541 5.392 16.2915 5.20133 16.3661 5.028C16.4408 4.852 16.5461 4.7 16.6821 4.572C16.8181 4.44133 16.9781 4.34 17.1621 4.268C17.3461 4.196 17.5461 4.16 17.7621 4.16C17.9808 4.16 18.1808 4.196 18.3621 4.268C18.5461 4.34 18.7061 4.44133 18.8421 4.572C18.9781 4.7 19.0835 4.852 19.1581 5.028C19.2328 5.20133 19.2701 5.392 19.2701 5.6C19.2701 5.808 19.2328 6 19.1581 6.176C19.0835 6.352 18.9781 6.504 18.8421 6.632C18.7061 6.76 18.5461 6.86 18.3621 6.932C18.1808 7.004 17.9821 7.04 17.7661 7.04ZM17.7621 6.584C17.9035 6.584 18.0341 6.56 18.1541 6.512C18.2741 6.464 18.3781 6.396 18.4661 6.308C18.5541 6.21733 18.6221 6.11333 18.6701 5.996C18.7208 5.876 18.7461 5.744 18.7461 5.6C18.7461 5.456 18.7208 5.32533 18.6701 5.208C18.6221 5.088 18.5541 4.984 18.4661 4.896C18.3781 4.80533 18.2741 4.736 18.1541 4.688C18.0341 4.64 17.9035 4.616 17.7621 4.616C17.6208 4.616 17.4901 4.64 17.3701 4.688C17.2528 4.736 17.1488 4.80533 17.0581 4.896C16.9701 4.984 16.9008 5.088 16.8501 5.208C16.8021 5.32533 16.7781 5.456 16.7781 5.6C16.7781 5.74133 16.8021 5.872 16.8501 5.992C16.9008 6.112 16.9701 6.21733 17.0581 6.308C17.1461 6.396 17.2501 6.464 17.3701 6.512C17.4901 6.56 17.6208 6.584 17.7621 6.584ZM22.2228 7.04C22.0094 7.04 21.8108 7.00533 21.6268 6.936C21.4454 6.864 21.2868 6.764 21.1508 6.636C21.0174 6.50533 20.9134 6.352 20.8388 6.176C20.7641 6 20.7268 5.808 20.7268 5.6C20.7268 5.392 20.7641 5.2 20.8388 5.024C20.9134 4.848 21.0188 4.696 21.1548 4.568C21.2908 4.43733 21.4494 4.33733 21.6308 4.268C21.8121 4.196 22.0108 4.16 22.2268 4.16C22.4561 4.16 22.6654 4.2 22.8548 4.28C23.0441 4.35733 23.2041 4.47333 23.3348 4.628L22.9988 4.944C22.8974 4.83467 22.7841 4.75333 22.6588 4.7C22.5334 4.644 22.3974 4.616 22.2508 4.616C22.1041 4.616 21.9694 4.64 21.8468 4.688C21.7268 4.736 21.6214 4.804 21.5308 4.892C21.4428 4.98 21.3734 5.084 21.3228 5.204C21.2748 5.324 21.2508 5.456 21.2508 5.6C21.2508 5.744 21.2748 5.876 21.3228 5.996C21.3734 6.116 21.4428 6.22 21.5308 6.308C21.6214 6.396 21.7268 6.464 21.8468 6.512C21.9694 6.56 22.1041 6.584 22.2508 6.584C22.3974 6.584 22.5334 6.55733 22.6588 6.504C22.7841 6.448 22.8974 6.364 22.9988 6.252L23.3348 6.572C23.2041 6.724 23.0441 6.84 22.8548 6.92C22.6654 7 22.4548 7.04 22.2228 7.04ZM23.3784 7L24.6384 4.2H25.1504L26.4144 7H25.8704L24.7864 4.476H24.9944L23.9144 7H23.3784ZM23.9584 6.352L24.0984 5.944H25.6104L25.7504 6.352H23.9584ZM26.7705 7V4.2H27.9225C28.1705 4.2 28.3825 4.24 28.5585 4.32C28.7372 4.4 28.8745 4.51467 28.9705 4.664C29.0665 4.81333 29.1145 4.99067 29.1145 5.196C29.1145 5.40133 29.0665 5.57867 28.9705 5.728C28.8745 5.87467 28.7372 5.988 28.5585 6.068C28.3825 6.14533 28.1705 6.184 27.9225 6.184H27.0585L27.2905 5.948V7H26.7705ZM28.6025 7L27.8945 5.984H28.4505L29.1625 7H28.6025ZM27.2905 6.004L27.0585 5.756H27.8985C28.1279 5.756 28.2999 5.70667 28.4145 5.608C28.5319 5.50933 28.5905 5.372 28.5905 5.196C28.5905 5.01733 28.5319 4.88 28.4145 4.784C28.2999 4.688 28.1279 4.64 27.8985 4.64H27.0585L27.2905 4.384V6.004ZM30.2253 7V4.64H29.2973V4.2H31.6733V4.64H30.7453V7H30.2253Z" fill="white"/>
</svg>
