<svg width="28" height="18" viewBox="0 0 28 18" fill="none" xmlns="http://www.w3.org/2000/svg">
<path opacity="0.07" d="M25.7895 0H2.21053C0.957895 0 0 0.975 0 2.25V15.75C0 17.025 1.03158 18 2.21053 18H25.7895C27.0421 18 28 17.025 28 15.75V2.25C28 0.975 26.9684 0 25.7895 0Z" fill="black"/>
<path d="M25.5556 1C26.35 1 27 1.65455 27 2.45455V15.5455C27 16.3455 26.35 17 25.5556 17H2.44444C1.65 17 1 16.3455 1 15.5455V2.45455C1 1.65455 1.65 1 2.44444 1H25.5556Z" fill="white"/>
<path d="M20.8969 7.575H20.6794C20.3893 8.325 20.1718 8.7 19.9542 9.825H21.3321C21.1145 8.7 21.1145 8.175 20.8969 7.575ZM23 12H21.7672C21.6947 12 21.6947 12 21.6221 11.925L21.4771 11.25L21.4046 11.1H19.6641C19.5916 11.1 19.5191 11.1 19.5191 11.25L19.3015 11.925C19.3015 12 19.229 12 19.229 12H17.7061L17.8511 11.625L19.9542 6.525C19.9542 6.15 20.1718 6 20.5343 6H21.6221C21.6947 6 21.7672 6 21.7672 6.15L22.7824 11.025C22.855 11.325 22.9275 11.55 22.9275 11.85C23 11.925 23 11.925 23 12ZM13.2824 11.775L13.5725 10.425C13.645 10.425 13.7176 10.5 13.7176 10.5C14.2252 10.725 14.7328 10.875 15.2405 10.8C15.3855 10.8 15.6031 10.725 15.7481 10.65C16.1107 10.5 16.1107 10.125 15.8206 9.825C15.6756 9.675 15.458 9.6 15.2405 9.45C14.9504 9.3 14.6603 9.15 14.4427 8.925C13.5725 8.175 13.8626 7.125 14.3702 6.6C14.8053 6.3 15.0229 6 15.6031 6C16.4733 6 17.416 6 17.8511 6.15H17.9237C17.8511 6.6 17.7786 6.975 17.6336 7.425C17.271 7.275 16.9084 7.125 16.5458 7.125C16.3282 7.125 16.1107 7.125 15.8931 7.2C15.7481 7.2 15.6756 7.275 15.6031 7.35C15.458 7.5 15.458 7.725 15.6031 7.875L15.9656 8.175C16.2557 8.325 16.5458 8.475 16.7634 8.625C17.126 8.85 17.4886 9.225 17.5611 9.675C17.7061 10.35 17.4885 10.95 16.9084 11.4C16.5458 11.7 16.4008 11.85 15.8931 11.85C14.8779 11.85 14.0802 11.925 13.4275 11.7C13.355 11.85 13.355 11.85 13.2824 11.775ZM10.7443 12C10.8168 11.475 10.8168 11.475 10.8893 11.25C11.2519 9.6 11.6145 7.875 11.9046 6.225C11.9771 6.075 11.9771 6 12.1221 6H13.4275C13.2824 6.9 13.1374 7.575 12.9198 8.4C12.7023 9.525 12.4847 10.65 12.1947 11.775C12.1947 11.925 12.1221 11.925 11.9771 11.925M4 6.15C4 6.075 4.14504 6 4.21756 6H6.68321C7.0458 6 7.33588 6.225 7.4084 6.6L8.06107 9.9C8.06107 9.975 8.06107 9.975 8.13359 10.05C8.13359 9.975 8.20611 9.975 8.20611 9.975L9.72901 6.15C9.65649 6.075 9.72901 6 9.80153 6H11.3244C11.3244 6.075 11.3244 6.075 11.2519 6.15L9.00382 11.625C8.9313 11.775 8.9313 11.85 8.85878 11.925C8.78626 12 8.64122 11.925 8.49618 11.925H7.4084C7.33588 11.925 7.26336 11.925 7.26336 11.775L6.10305 7.125C5.95802 6.975 5.74046 6.75 5.45038 6.675C5.01527 6.45 4.21756 6.3 4.07252 6.3L4 6.15Z" fill="#142688"/>
</svg>
