<svg width="73" height="16" viewBox="0 0 73 16" fill="none" xmlns="http://www.w3.org/2000/svg">
<rect x="0.25" y="0.25" width="72.5" height="15.5" rx="7.75" stroke="#B4D5DF" stroke-width="0.5"/>
<path d="M17.288 9.028H15.188L14.774 10H13.97L15.86 5.8H16.628L18.524 10H17.708L17.288 9.028ZM17.03 8.416L16.238 6.58L15.452 8.416H17.03ZM19.0581 5.8H20.8941C21.3421 5.8 21.7401 5.888 22.0881 6.064C22.4361 6.236 22.7061 6.482 22.8981 6.802C23.0901 7.118 23.1861 7.484 23.1861 7.9C23.1861 8.316 23.0901 8.684 22.8981 9.004C22.7061 9.32 22.4361 9.566 22.0881 9.742C21.7401 9.914 21.3421 10 20.8941 10H19.0581V5.8ZM20.8581 9.34C21.1661 9.34 21.4361 9.282 21.6681 9.166C21.9041 9.046 22.0841 8.878 22.2081 8.662C22.3361 8.442 22.4001 8.188 22.4001 7.9C22.4001 7.612 22.3361 7.36 22.2081 7.144C22.0841 6.924 21.9041 6.756 21.6681 6.64C21.4361 6.52 21.1661 6.46 20.8581 6.46H19.8381V9.34H20.8581ZM24.0152 5.8H25.8512C26.2992 5.8 26.6972 5.888 27.0452 6.064C27.3932 6.236 27.6632 6.482 27.8552 6.802C28.0472 7.118 28.1432 7.484 28.1432 7.9C28.1432 8.316 28.0472 8.684 27.8552 9.004C27.6632 9.32 27.3932 9.566 27.0452 9.742C26.6972 9.914 26.2992 10 25.8512 10H24.0152V5.8ZM25.8152 9.34C26.1232 9.34 26.3932 9.282 26.6252 9.166C26.8612 9.046 27.0412 8.878 27.1652 8.662C27.2932 8.442 27.3572 8.188 27.3572 7.9C27.3572 7.612 27.2932 7.36 27.1652 7.144C27.0412 6.924 26.8612 6.756 26.6252 6.64C26.3932 6.52 26.1232 6.46 25.8152 6.46H24.7952V9.34H25.8152ZM31.4824 6.46H30.0904V5.8H33.6544V6.46H32.2624V10H31.4824V6.46ZM36.1432 10.06C35.7152 10.06 35.3292 9.968 34.9852 9.784C34.6412 9.596 34.3712 9.338 34.1752 9.01C33.9792 8.678 33.8812 8.308 33.8812 7.9C33.8812 7.492 33.9792 7.124 34.1752 6.796C34.3712 6.464 34.6412 6.206 34.9852 6.022C35.3292 5.834 35.7152 5.74 36.1432 5.74C36.5712 5.74 36.9572 5.834 37.3012 6.022C37.6452 6.206 37.9152 6.462 38.1112 6.79C38.3072 7.118 38.4052 7.488 38.4052 7.9C38.4052 8.312 38.3072 8.682 38.1112 9.01C37.9152 9.338 37.6452 9.596 37.3012 9.784C36.9572 9.968 36.5712 10.06 36.1432 10.06ZM36.1432 9.376C36.4232 9.376 36.6752 9.314 36.8992 9.19C37.1232 9.062 37.2992 8.886 37.4272 8.662C37.5552 8.434 37.6192 8.18 37.6192 7.9C37.6192 7.62 37.5552 7.368 37.4272 7.144C37.2992 6.916 37.1232 6.74 36.8992 6.616C36.6752 6.488 36.4232 6.424 36.1432 6.424C35.8632 6.424 35.6112 6.488 35.3872 6.616C35.1632 6.74 34.9872 6.916 34.8592 7.144C34.7312 7.368 34.6672 7.62 34.6672 7.9C34.6672 8.18 34.7312 8.434 34.8592 8.662C34.9872 8.886 35.1632 9.062 35.3872 9.19C35.6112 9.314 35.8632 9.376 36.1432 9.376ZM42.8342 10.06C42.4102 10.06 42.0262 9.968 41.6822 9.784C41.3422 9.596 41.0742 9.338 40.8782 9.01C40.6862 8.682 40.5902 8.312 40.5902 7.9C40.5902 7.488 40.6882 7.118 40.8842 6.79C41.0802 6.462 41.3482 6.206 41.6882 6.022C42.0322 5.834 42.4162 5.74 42.8402 5.74C43.1842 5.74 43.4982 5.8 43.7822 5.92C44.0662 6.04 44.3062 6.214 44.5022 6.442L43.9982 6.916C43.6942 6.588 43.3202 6.424 42.8762 6.424C42.5882 6.424 42.3302 6.488 42.1022 6.616C41.8742 6.74 41.6962 6.914 41.5682 7.138C41.4402 7.362 41.3762 7.616 41.3762 7.9C41.3762 8.184 41.4402 8.438 41.5682 8.662C41.6962 8.886 41.8742 9.062 42.1022 9.19C42.3302 9.314 42.5882 9.376 42.8762 9.376C43.3202 9.376 43.6942 9.21 43.9982 8.878L44.5022 9.358C44.3062 9.586 44.0642 9.76 43.7762 9.88C43.4922 10 43.1782 10.06 42.8342 10.06ZM47.8857 9.028H45.7857L45.3717 10H44.5677L46.4577 5.8H47.2257L49.1217 10H48.3057L47.8857 9.028ZM47.6277 8.416L46.8357 6.58L46.0497 8.416H47.6277ZM52.4038 10L51.5458 8.77C51.5098 8.774 51.4558 8.776 51.3838 8.776H50.4358V10H49.6558V5.8H51.3838C51.7478 5.8 52.0638 5.86 52.3318 5.98C52.6038 6.1 52.8118 6.272 52.9558 6.496C53.0998 6.72 53.1718 6.986 53.1718 7.294C53.1718 7.61 53.0938 7.882 52.9378 8.11C52.7858 8.338 52.5658 8.508 52.2778 8.62L53.2438 10H52.4038ZM52.3858 7.294C52.3858 7.026 52.2978 6.82 52.1218 6.676C51.9458 6.532 51.6878 6.46 51.3478 6.46H50.4358V8.134H51.3478C51.6878 8.134 51.9458 8.062 52.1218 7.918C52.2978 7.77 52.3858 7.562 52.3858 7.294ZM54.8379 6.46H53.4459V5.8H57.0099V6.46H55.6179V10H54.8379V6.46Z" fill="#B4D5DF"/>
</svg>
