<svg width="5" height="5" viewBox="0 0 5 5" fill="none" xmlns="http://www.w3.org/2000/svg">
<path d="M4.9974 4.45026L4.55367 0.942408H3.73555C3.63849 0.405759 3.12543 0 2.50144 0C1.87745 0 1.36439 0.405759 1.26732 0.942408H0.449201L0.00547372 4.45026C-0.0222592 4.6466 0.0609396 4.7644 0.130272 4.84293C0.199604 4.90838 0.324402 5 0.560132 5H4.44274C4.62301 5 4.77554 4.94764 4.8726 4.82984C4.96967 4.73822 5.01127 4.59424 4.9974 4.45026ZM2.50144 0.52356C2.8065 0.52356 3.06996 0.706806 3.15316 0.942408H1.83585C1.93291 0.693717 2.19637 0.52356 2.50144 0.52356ZM0.560132 4.47644L0.948393 1.46597H1.25346V1.85864C1.25346 2.00262 1.37825 2.12042 1.53078 2.12042C1.68332 2.12042 1.80811 2.00262 1.80811 1.85864V1.46597H3.19476V1.85864C3.19476 2.00262 3.31956 2.12042 3.47209 2.12042C3.62462 2.12042 3.74942 2.00262 3.74942 1.85864V1.46597H4.05448L4.44274 4.47644H0.560132Z" fill="#63C6E4"/>
</svg>
