<svg width="272" height="76" viewBox="0 0 272 76" fill="none" xmlns="http://www.w3.org/2000/svg">
<path d="M6.83398 10.6465C7.0944 9.83268 7.5013 9.18164 8.05469 8.69336C9.19401 7.65169 10.6914 7.0332 12.5469 6.83789C10.5938 6.61003 8.93359 7.0332 7.56641 8.10742C6.88281 8.5957 6.3457 9.32812 5.95508 10.3047C5.66211 11.0534 5.48307 11.9323 5.41797 12.9414C5.35286 14.4714 5.56445 16.1966 6.05273 18.1172C6.41081 19.5495 6.96419 21.1608 7.71289 22.9512L7.22461 20.4121L6.78516 17.9219C6.42708 15.8385 6.29688 14.1947 6.39453 12.9902C6.42708 12.0788 6.57357 11.2975 6.83398 10.6465ZM20.1641 5.27539C22.4427 6.77279 24.2819 8.85612 25.6816 11.5254C27.7975 15.4316 29.0182 21.0632 29.3438 28.4199C29.7018 35.3861 29.2135 42.4336 27.8789 49.5625C26.4792 56.9844 24.4772 62.7949 21.873 66.9941C18.9434 71.7142 15.6556 73.651 12.0098 72.8047C10.1217 72.3815 8.88477 71.3398 8.29883 69.6797C7.81055 68.3776 7.61523 66.1315 7.71289 62.9414C7.74544 62.3229 7.77799 61.5579 7.81055 60.6465L7.85938 59.377L7.95703 58.1074C8.05469 55.8288 8.11979 53.8594 8.15234 52.1992C8.25 47.056 8.02214 42.0592 7.46875 37.209C7.24089 35.1908 6.67122 32.6517 5.75977 29.5918L5.17383 27.6387L4.58789 25.7344C4.06706 24.1393 3.67643 22.8535 3.41602 21.877C1.72331 15.7897 1.67448 11.1673 3.26953 8.00977C4.14844 6.31706 5.5319 5.01497 7.41992 4.10352C9.30794 3.19206 11.3587 2.83398 13.5723 3.0293C15.916 3.19206 18.1133 3.94076 20.1641 5.27539ZM70.3594 33.791C70.9128 32.4564 71.7917 31.4147 72.9961 30.666C74.0052 29.9824 75.3236 29.4941 76.9512 29.2012C75.4212 28.6803 73.9401 28.8919 72.5078 29.8359C71.7917 30.3242 71.2383 30.8939 70.8477 31.5449C70.4245 32.2936 70.2617 33.0423 70.3594 33.791ZM71.2383 48.7812C71.9219 48.3255 72.4427 47.8047 72.8008 47.2188C73.224 46.5352 73.4193 45.8516 73.3867 45.168C72.8008 46.2747 71.9219 47.2188 70.75 48C70.2292 48.3255 69.6595 48.6022 69.041 48.8301C68.5527 49.0254 67.9017 49.2044 67.0879 49.3672C68.4876 49.8555 69.8711 49.6602 71.2383 48.7812ZM48.2402 13.918C50.3887 12.0951 52.8464 10.5651 55.6133 9.32812C56.8828 8.77474 58.25 8.30273 59.7148 7.91211C60.9193 7.55404 62.3678 7.24479 64.0605 6.98438C61.0983 7.01693 58.1849 7.58659 55.3203 8.69336C52.5534 9.73503 49.9818 11.2487 47.6055 13.2344C46.4661 14.2109 45.4245 15.2852 44.4805 16.457C43.3086 17.9544 42.4785 19.1914 41.9902 20.168C40.5905 22.6745 39.6139 25.474 39.0605 28.5664L39.4023 27.541L39.7441 26.4668C40.0371 25.6855 40.3138 25.002 40.5742 24.416C41.1602 23.0488 41.8438 21.763 42.625 20.5586C44.1875 18.0195 46.0592 15.806 48.2402 13.918ZM79.4902 25.832C81.7038 26.418 83.7546 27.6387 85.6426 29.4941C88.2142 32.0007 89.9232 35.679 90.7695 40.5293C91.5508 44.8913 91.502 49.2207 90.623 53.5176C89.3535 59.9954 86.5866 64.8945 82.3223 68.2148C78.0254 71.5352 72.4427 73.1302 65.5742 73C57.5013 72.8372 50.6491 70.1029 45.0176 64.7969C39.1908 59.2956 35.7402 51.9388 34.666 42.7266C33.6243 33.8073 34.9102 26.0111 38.5234 19.3379C41.9414 13.0879 46.9544 8.54688 53.5625 5.71484C59.3568 3.24089 65.0859 2.50846 70.75 3.51758C73.3542 3.97331 75.4538 4.78711 77.0488 5.95898C78.709 7.22852 79.5879 8.75846 79.6855 10.5488C79.8158 12.7624 79.0833 14.6992 77.4883 16.3594C75.7956 18.1172 73.2891 19.403 69.9688 20.2168C67.0716 20.9655 64.7604 22.4954 63.0352 24.8066C61.375 27.0202 60.4635 29.6732 60.3008 32.7656C60.0729 37.1276 61.1471 40.6595 63.5234 43.3613C64.5 44.4681 65.5254 45.1842 66.5996 45.5098C67.6738 45.8027 68.569 45.6237 69.2852 44.9727C69.7409 44.5495 69.8548 43.9961 69.627 43.3125C69.5293 43.0195 69.3503 42.6615 69.0898 42.2383L68.748 41.6035L68.3574 40.9688C67.6738 39.7643 67.2018 38.6738 66.9414 37.6973C66.5182 36.265 66.4043 34.7839 66.5996 33.2539C66.86 31.4961 67.625 29.9336 68.8945 28.5664C70.1641 27.2318 71.7103 26.3203 73.5332 25.832C75.4863 25.2786 77.472 25.2786 79.4902 25.832ZM129.783 50.7832C130.792 50.653 131.98 50.5553 133.348 50.4902C134.78 50.4251 135.968 50.4251 136.912 50.4902C134.992 49.7415 132.583 49.5299 129.686 49.8555C128.416 50.0182 127.228 50.2461 126.121 50.5391L125.242 50.7832L124.363 51.0762C123.68 51.304 123.11 51.4505 122.654 51.5156C123.11 51.6133 123.712 51.6133 124.461 51.5156L126.268 51.2715L128.025 51.0273L129.783 50.7832ZM106.443 10.5977C106.964 9.6862 107.436 8.97005 107.859 8.44922C108.543 7.57031 109.21 7.04948 109.861 6.88672C109.438 6.88672 109.015 7.01693 108.592 7.27734C108.299 7.47266 107.941 7.74935 107.518 8.10742C106.932 8.69336 106.362 9.40951 105.809 10.2559C104.93 11.5905 104.148 13.1855 103.465 15.041C102.26 18.4264 101.528 21.8932 101.268 25.4414L102 22.9023L102.732 20.3633C103.318 18.4427 103.855 16.7826 104.344 15.3828C104.962 13.6576 105.662 12.0625 106.443 10.5977ZM119.041 41.7988C119.432 46.3561 120.978 48.293 123.68 47.6094C130.158 46.0143 135.366 45.9004 139.305 47.2676C143.602 48.7324 145.555 51.7109 145.164 56.2031C144.969 58.9375 143.276 61.6556 140.086 64.3574C137.091 66.929 133.364 69.0124 128.904 70.6074C124.249 72.2676 119.773 73.0651 115.477 73C110.724 72.9023 106.867 71.7305 103.904 69.4844C100.747 67.1081 98.5169 62.2904 97.2148 55.0312C96.043 48.4232 95.8151 41.0501 96.5312 32.9121C97.2474 24.7741 98.7285 17.9707 100.975 12.502C103.416 6.47982 106.297 3.37109 109.617 3.17578C114.044 2.91536 116.958 5.21029 118.357 10.0605C119.334 13.4134 119.676 18.752 119.383 26.0762L119.285 28.2734L119.188 30.4219C119.09 32.2448 119.025 33.6283 118.992 34.5723C118.862 37.6647 118.878 40.0736 119.041 41.7988ZM181.395 53.0293C182.241 52.6061 183.006 51.9551 183.689 51.0762C184.959 49.3509 185.366 47.4792 184.91 45.4609C184.552 47.5117 183.885 49.2044 182.908 50.5391C181.834 51.9714 180.385 53.0293 178.562 53.7129C179.539 53.778 180.483 53.5501 181.395 53.0293ZM174.07 42.7266C173.484 43.7357 173.289 44.8587 173.484 46.0957C173.68 47.3327 174.217 48.3255 175.096 49.0742C175.975 49.8229 176.935 50.1159 177.977 49.9531C179.018 49.7904 179.832 49.2044 180.418 48.1953C181.004 47.2188 181.199 46.112 181.004 44.875C180.809 43.638 180.271 42.6452 179.393 41.8965C178.514 41.1152 177.553 40.806 176.512 40.9688C175.47 41.1641 174.656 41.75 174.07 42.7266ZM164.256 12.8926C166.209 11.0697 168.439 9.65365 170.945 8.64453C173.224 7.70052 175.844 7.11458 178.807 6.88672L176.756 6.83789L175.73 6.88672L174.705 6.98438C173.273 7.17969 171.938 7.48893 170.701 7.91211C168.13 8.79102 165.77 10.2233 163.621 12.209C161.603 14.0645 159.943 16.2617 158.641 18.8008C157.371 21.2422 156.46 23.8138 155.906 26.5156L156.639 24.6113L157.42 22.707L158.299 20.9004L158.787 20.0215L159.275 19.1426C160.805 16.6361 162.465 14.5527 164.256 12.8926ZM162.107 9.08398C168.846 3.32227 177.244 1.67839 187.303 4.15234C196.287 6.36589 202.326 11.623 205.418 19.9238C208.152 27.2806 208.217 35.5977 205.613 44.875C203.074 53.9245 198.81 61.1185 192.82 66.457C186.245 72.3164 179.246 74.237 171.824 72.2188C163.914 70.1029 158.055 64.8132 154.246 56.3496C150.698 48.5371 149.624 40.041 151.023 30.8613C152.488 21.4212 156.183 14.1621 162.107 9.08398ZM243.211 53.0293C244.057 52.6061 244.822 51.9551 245.506 51.0762C246.775 49.3509 247.182 47.4792 246.727 45.4609C246.368 47.5117 245.701 49.2044 244.725 50.5391C243.65 51.9714 242.202 53.0293 240.379 53.7129C241.355 53.778 242.299 53.5501 243.211 53.0293ZM235.887 42.7266C235.301 43.7357 235.105 44.8587 235.301 46.0957C235.496 47.3327 236.033 48.3255 236.912 49.0742C237.791 49.8229 238.751 50.1159 239.793 49.9531C240.835 49.7904 241.648 49.2044 242.234 48.1953C242.82 47.2188 243.016 46.112 242.82 44.875C242.625 43.638 242.088 42.6452 241.209 41.8965C240.33 41.1152 239.37 40.806 238.328 40.9688C237.286 41.1641 236.473 41.75 235.887 42.7266ZM226.072 12.8926C228.025 11.0697 230.255 9.65365 232.762 8.64453C235.04 7.70052 237.661 7.11458 240.623 6.88672L238.572 6.83789L237.547 6.88672L236.521 6.98438C235.089 7.17969 233.755 7.48893 232.518 7.91211C229.946 8.79102 227.586 10.2233 225.438 12.209C223.419 14.0645 221.759 16.2617 220.457 18.8008C219.188 21.2422 218.276 23.8138 217.723 26.5156L218.455 24.6113L219.236 22.707L220.115 20.9004L220.604 20.0215L221.092 19.1426C222.622 16.6361 224.282 14.5527 226.072 12.8926ZM223.924 9.08398C230.662 3.32227 239.061 1.67839 249.119 4.15234C258.104 6.36589 264.142 11.623 267.234 19.9238C269.969 27.2806 270.034 35.5977 267.43 44.875C264.891 53.9245 260.626 61.1185 254.637 66.457C248.061 72.3164 241.062 74.237 233.641 72.2188C225.73 70.1029 219.871 64.8132 216.062 56.3496C212.514 48.5371 211.44 40.041 212.84 30.8613C214.305 21.4212 217.999 14.1621 223.924 9.08398Z" fill="#63C6E4"/>
</svg>
